<svg xmlns="http://www.w3.org/2000/svg" width="1254" height="836" viewBox="0 0 1254 836">
<g>
<path d="M 747.17 499.00 C724.71,499.00 652.26,499.30 586.17,499.67 L 466.00 500.33 L 465.98 490.92 C465.91,446.72 465.86,174.32 465.92,170.25 L 466.00 165.00 L 788.00 165.00 L 788.00 499.00 ZM 472.46 491.75 C472.84,492.75 504.22,492.95 626.72,492.75 L 780.50 492.50 L 780.75 331.92 L 781.01 171.34 L 626.75 171.46 L 472.50 171.59 L 472.24 331.05 C472.10,418.75 472.20,491.06 472.46,491.75 ZM 779.02 384.25 L 779.00 490.00 L 474.00 490.00 L 474.00 174.00 L 779.00 174.00 L 779.01 176.25 C779.04,181.99 779.04,288.49 779.02,384.25 ZM 520.57 417.11 C521.24,418.19 578.00,418.25 578.00,417.17 C578.00,416.70 576.09,415.75 573.75,415.05 C566.21,412.80 564.15,411.27 563.03,407.09 C562.35,404.60 562.07,388.84 562.24,363.35 L 562.50 323.50 L 604.19 322.96 L 609.66 318.50 L 615.14 314.03 L 588.82 313.77 L 562.50 313.50 L 562.50 270.50 C562.50,246.85 562.84,226.27 563.27,224.76 C564.16,221.56 570.31,218.00 574.96,218.00 C576.63,218.00 578.00,217.55 578.00,217.00 C578.00,216.36 567.65,216.00 548.94,216.00 C529.82,216.00 520.09,216.34 520.50,217.00 C520.84,217.55 521.88,218.00 522.81,218.01 C527.42,218.02 532.20,220.28 534.06,223.31 C535.96,226.42 536.00,228.75 535.76,317.65 C535.73,326.71 535.71,334.91 535.70,342.32 C535.59,401.14 535.57,410.86 531.37,413.26 C530.01,414.03 528.22,414.04 525.83,414.71 C522.67,415.59 520.29,416.67 520.57,417.11 ZM 648.44 462.61 C656.70,464.78 659.10,464.97 675.50,464.67 C691.64,464.37 694.42,464.06 702.37,461.64 C707.24,460.16 715.45,456.86 720.62,454.31 L 730.00 449.69 L 730.00 443.99 C730.00,440.86 730.29,435.53 730.64,432.15 C731.20,426.85 731.06,426.00 729.64,426.00 C728.74,426.00 728.00,426.69 728.00,427.54 C728.00,433.22 716.15,445.89 706.61,450.41 C703.59,451.83 700.65,453.00 700.06,453.00 C699.48,453.00 699.00,453.34 698.99,453.75 C698.99,454.16 697.11,454.61 694.81,454.74 C692.51,454.87 690.38,455.32 690.06,455.74 C689.27,456.81 667.00,456.69 667.00,455.62 C667.00,455.14 665.65,455.02 664.00,455.35 C662.21,455.71 661.00,455.53 661.00,454.92 C661.00,454.35 660.50,454.19 659.89,454.57 C659.28,454.95 658.44,454.70 658.02,454.03 C657.60,453.36 656.08,452.74 654.63,452.65 C653.18,452.57 652.00,452.14 652.00,451.69 C652.00,451.25 651.55,451.16 651.00,451.50 C650.45,451.84 650.00,451.67 650.00,451.13 C650.00,450.13 646.16,448.43 644.75,448.80 C644.34,448.91 644.00,448.55 644.00,448.00 C644.00,447.45 643.55,447.00 642.99,447.00 C642.03,447.00 640.39,445.70 631.81,438.13 C622.40,429.83 613.83,414.88 609.86,399.84 C608.16,393.42 607.64,388.62 607.61,379.00 C607.55,355.72 613.41,339.57 626.83,326.04 C639.42,313.34 652.55,308.31 670.50,309.29 C681.54,309.90 689.52,312.20 697.32,317.02 C699.97,318.66 702.30,320.00 702.51,320.00 C702.72,320.00 705.26,322.50 708.15,325.57 C714.66,332.45 717.81,337.74 720.01,345.50 C720.94,348.80 722.11,351.39 722.60,351.25 C723.10,351.12 723.62,343.36 723.77,334.03 L 724.05 317.05 L 718.14 314.07 C714.90,312.43 711.96,311.37 711.62,311.71 C711.28,312.05 711.00,311.78 711.00,311.11 C711.00,310.43 710.55,310.16 710.00,310.50 C709.45,310.84 709.00,310.69 709.00,310.16 C709.00,308.97 703.10,306.82 701.89,307.57 C701.40,307.87 701.00,307.59 701.00,306.95 C701.00,306.31 700.33,306.05 699.50,306.36 C698.67,306.68 698.00,306.47 698.00,305.90 C698.00,305.32 697.12,305.14 696.00,305.50 C694.78,305.89 694.00,305.68 694.00,304.96 C694.00,304.29 693.31,304.05 692.37,304.41 C691.48,304.75 690.08,304.48 689.26,303.80 C687.33,302.20 653.00,301.54 653.00,303.10 C653.00,303.68 652.12,303.86 651.00,303.50 C649.90,303.15 649.00,303.24 649.00,303.71 C649.00,304.17 647.31,304.57 645.25,304.59 C643.19,304.61 638.37,305.91 634.55,307.47 C612.13,316.60 596.48,333.56 588.84,357.00 C586.18,365.17 585.67,368.41 585.26,380.09 C584.68,396.52 586.55,405.46 593.48,419.50 C598.07,428.80 606.36,440.00 608.65,440.00 C609.37,440.00 610.66,441.07 611.51,442.38 C615.54,448.52 634.58,458.95 648.44,462.61 ZM 646.00 417.03 C646.00,418.17 700.70,418.30 701.40,417.17 C701.69,416.70 699.32,415.58 696.12,414.69 C692.93,413.81 689.24,412.20 687.91,411.13 L 685.50 409.18 L 685.21 362.14 L 684.93 315.11 L 680.21 314.37 C667.82,312.43 652.90,313.97 642.75,318.25 C634.76,321.61 636.44,322.90 649.25,323.22 L 660.50 323.50 L 660.76 365.00 C660.94,392.78 660.67,407.36 659.96,409.09 C658.84,411.81 654.73,414.24 649.25,415.45 C647.46,415.84 646.00,416.55 646.00,417.03 ZM 672.25 298.25 C678.44,298.43 683.84,298.67 684.25,298.79 C684.66,298.90 685.00,283.01 685.00,263.47 C685.00,223.47 685.21,222.07 691.43,219.46 C693.36,218.66 696.05,218.00 697.41,218.00 C698.77,218.00 700.16,217.55 700.50,217.00 C700.91,216.34 691.68,216.00 673.56,216.00 C655.85,216.00 646.00,216.36 646.00,217.00 C646.00,217.55 647.10,218.00 648.43,218.00 C651.83,218.00 656.09,219.75 658.75,222.24 L 661.00 224.35 L 661.00 297.93 ZM 606.94 662.54 C605.49,663.43 551.87,663.61 466.08,663.00 C410.20,662.61 394.58,662.23 394.25,661.25 C393.92,660.26 415.69,660.00 500.92,660.00 C567.16,660.00 608.00,660.36 608.00,660.94 C608.00,661.46 607.52,662.18 606.94,662.54 ZM 860.18 662.22 C859.24,663.16 836.66,663.45 760.73,663.47 C652.08,663.50 640.97,663.36 639.56,661.96 C638.95,661.35 678.53,661.00 750.00,661.00 C837.67,661.00 861.14,661.26 860.18,662.22 Z" fill="rgb(32,31,29)"/>
<path d="M 648.44 462.61 C634.58,458.95 615.54,448.52 611.51,442.38 C610.66,441.07 609.37,440.00 608.65,440.00 C606.36,440.00 598.07,428.80 593.48,419.50 C586.55,405.46 584.68,396.52 585.26,380.09 C585.67,368.41 586.18,365.17 588.84,357.00 C596.48,333.56 612.13,316.60 634.55,307.47 C638.37,305.91 643.19,304.61 645.25,304.59 C647.31,304.57 649.00,304.17 649.00,303.71 C649.00,303.24 649.90,303.15 651.00,303.50 C652.12,303.86 653.00,303.68 653.00,303.10 C653.00,301.54 687.33,302.20 689.26,303.80 C690.08,304.48 691.48,304.75 692.37,304.41 C693.31,304.05 694.00,304.29 694.00,304.96 C694.00,305.68 694.78,305.89 696.00,305.50 C697.12,305.14 698.00,305.32 698.00,305.90 C698.00,306.47 698.67,306.68 699.50,306.36 C700.33,306.05 701.00,306.31 701.00,306.95 C701.00,307.59 701.40,307.87 701.89,307.57 C703.10,306.82 709.00,308.97 709.00,310.16 C709.00,310.69 709.45,310.84 710.00,310.50 C710.55,310.16 711.00,310.43 711.00,311.11 C711.00,311.78 711.28,312.05 711.62,311.71 C711.96,311.37 714.90,312.43 718.14,314.07 L 724.05 317.05 L 723.77 334.03 C723.62,343.36 723.10,351.12 722.60,351.25 C722.11,351.39 720.94,348.80 720.01,345.50 C717.81,337.74 714.66,332.45 708.15,325.57 C705.26,322.50 702.72,320.00 702.51,320.00 C702.30,320.00 699.97,318.66 697.32,317.02 C689.52,312.20 681.54,309.90 670.50,309.29 C652.55,308.31 639.42,313.34 626.83,326.04 C613.41,339.57 607.55,355.72 607.61,379.00 C607.64,388.62 608.16,393.42 609.86,399.84 C613.83,414.88 622.40,429.83 631.81,438.13 C640.39,445.70 642.03,447.00 642.99,447.00 C643.55,447.00 644.00,447.45 644.00,448.00 C644.00,448.55 644.34,448.91 644.75,448.80 C646.16,448.43 650.00,450.13 650.00,451.13 C650.00,451.67 650.45,451.84 651.00,451.50 C651.55,451.16 652.00,451.25 652.00,451.69 C652.00,452.14 653.18,452.57 654.63,452.65 C656.08,452.74 657.60,453.36 658.02,454.03 C658.44,454.70 659.28,454.95 659.89,454.57 C660.50,454.19 661.00,454.35 661.00,454.92 C661.00,455.53 662.21,455.71 664.00,455.35 C665.65,455.02 667.00,455.14 667.00,455.62 C667.00,456.69 689.27,456.81 690.06,455.74 C690.38,455.32 692.51,454.87 694.81,454.74 C697.11,454.61 698.99,454.16 698.99,453.75 C699.00,453.34 699.48,453.00 700.06,453.00 C700.65,453.00 703.59,451.83 706.61,450.41 C716.15,445.89 728.00,433.22 728.00,427.54 C728.00,426.69 728.74,426.00 729.64,426.00 C731.06,426.00 731.20,426.85 730.64,432.15 C730.29,435.53 730.00,440.86 730.00,443.99 L 730.00 449.69 L 720.62 454.31 C715.45,456.86 707.24,460.16 702.37,461.64 C694.42,464.06 691.64,464.37 675.50,464.67 C659.10,464.97 656.70,464.78 648.44,462.61 ZM 472.46 491.75 C472.20,491.06 472.10,418.75 472.24,331.05 L 472.50 171.59 L 626.75 171.46 L 778.18 171.34 C778.23,171.42 778.33,171.54 778.50,171.67 C778.58,171.74 778.65,172.51 778.71,174.00 L 474.00 174.00 L 474.00 490.00 L 779.00 490.00 L 779.02 384.25 C779.04,305.11 779.04,218.65 779.02,187.77 C779.34,211.04 779.50,259.35 779.50,331.50 L 779.50 490.50 L 472.50 491.51 L 626.75 491.75 L 780.50 492.00 L 780.50 492.50 L 626.72 492.75 C504.22,492.95 472.84,492.75 472.46,491.75 ZM 747.17 499.00 L 788.00 499.00 L 788.00 165.00 L 466.00 165.00 L 465.92 170.25 C465.86,173.78 465.90,378.44 465.96,461.99 C465.91,431.28 465.83,379.49 465.75,322.75 L 465.50 164.00 L 791.00 164.00 L 791.07 306.25 C791.11,384.49 791.46,455.02 791.86,463.00 C792.59,477.52 791.99,500.34 790.85,501.48 C789.86,502.48 784.44,502.65 765.71,502.29 C754.46,502.08 748.13,501.59 748.51,500.98 C748.91,500.34 699.43,500.00 607.56,500.00 L 525.71 500.00 L 586.17 499.67 C652.26,499.30 724.71,499.00 747.17,499.00 ZM 860.18 662.22 C861.14,661.26 837.67,661.00 750.00,661.00 C678.53,661.00 638.95,661.35 639.56,661.96 C640.97,663.36 652.08,663.50 760.73,663.47 C764.10,663.47 767.37,663.47 770.53,663.47 C762.87,663.48 754.93,663.49 746.81,663.49 L 635.11 663.50 L 631.81 666.54 C627.01,670.97 624.19,670.85 620.25,666.08 C616.50,661.53 616.79,659.40 621.76,654.70 C624.08,652.50 625.30,652.04 627.37,652.56 C630.52,653.35 631.74,654.93 630.02,655.99 C628.49,656.94 630.40,658.34 633.47,658.51 C634.59,658.58 686.24,658.71 748.25,658.82 C845.67,658.97 861.00,659.20 861.00,660.44 C861.00,661.23 860.44,662.24 859.75,662.68 C859.56,662.80 855.62,662.91 848.73,663.01 C856.54,662.83 859.83,662.57 860.18,662.22 ZM 779.11 171.34 L 781.01 171.34 L 780.75 331.83 C780.54,194.57 780.34,172.82 779.11,171.34 ZM 476.40 569.81 C479.77,570.41 480.09,570.68 478.74,571.80 C477.69,572.67 476.97,572.75 476.53,572.05 C476.16,571.45 471.76,570.96 466.19,570.90 C459.80,570.83 457.35,570.53 459.00,570.00 C462.14,569.00 471.26,568.90 476.40,569.81 ZM 555.41 569.87 C558.03,570.44 558.15,570.63 556.66,571.87 C555.58,572.76 555.00,572.85 555.00,572.12 C555.00,571.37 551.91,570.99 545.75,570.98 C539.41,570.97 536.97,570.66 538.00,570.00 C539.64,568.94 550.76,568.86 555.41,569.87 ZM 327.42 627.13 C326.80,628.13 315.94,628.09 311.50,627.08 L 308.50 626.39 L 312.00 625.83 C316.69,625.08 328.09,626.05 327.42,627.13 ZM 490.08 618.08 C487.69,620.46 486.36,620.98 482.83,620.89 L 478.50 620.79 L 483.00 619.80 C487.78,618.75 491.00,616.56 491.00,614.35 C491.00,613.61 491.45,613.00 492.00,613.00 C493.83,613.00 493.03,615.12 490.08,618.08 ZM 417.50 626.00 C418.86,626.59 417.11,626.88 412.00,626.91 C406.81,626.95 404.96,626.67 406.00,626.00 C407.83,624.82 414.75,624.82 417.50,626.00 ZM 386.98 582.95 C387.65,584.57 388.02,586.43 387.80,587.09 C387.32,588.54 384.00,583.70 384.00,581.54 C384.00,579.00 385.67,579.80 386.98,582.95 ZM 735.00 579.93 C735.00,581.55 733.00,581.21 732.47,579.50 L 731.53 576.50 C731.27,575.67 731.48,575.00 732.00,575.00 C733.02,575.00 735.00,578.25 735.00,579.93 ZM 471.57 161.88 L 475.50 162.80 L 470.55 162.90 C467.18,162.97 465.93,162.67 466.62,161.98 C467.29,161.31 469.00,161.28 471.57,161.88 ZM 968.00 591.56 C968.00,592.35 967.60,593.00 967.11,593.00 C966.09,593.00 964.71,589.95 965.41,589.26 C966.20,588.46 968.00,590.06 968.00,591.56 ZM 624.58 596.16 C626.14,596.47 626.16,596.63 624.74,597.80 C623.62,598.73 622.98,598.78 622.49,597.98 C621.57,596.50 622.44,595.74 624.58,596.16 ZM 380.00 594.94 C380.00,595.46 379.55,596.16 379.00,596.50 C378.45,596.84 378.00,596.42 378.00,595.56 C378.00,594.70 378.45,594.00 379.00,594.00 C379.55,594.00 380.00,594.42 380.00,594.94 Z" fill="rgb(183,164,113)"/>
<path d="M 520.57 417.11 C520.29,416.67 522.67,415.59 525.83,414.71 C528.22,414.04 530.01,414.03 531.37,413.26 C535.57,410.86 535.59,401.14 535.70,342.32 C535.71,334.91 535.73,326.71 535.76,317.65 C536.00,228.75 535.96,226.42 534.06,223.31 C532.59,220.91 529.30,219.00 525.71,218.30 C526.49,218.26 527.18,218.11 527.50,217.89 C528.05,217.50 529.85,216.98 531.50,216.74 C532.88,216.54 531.71,216.32 528.91,216.21 C533.65,216.07 540.34,216.00 548.94,216.00 C556.96,216.00 563.44,216.07 568.23,216.19 C565.95,216.32 565.65,216.57 567.00,217.00 C570.64,218.17 578.00,218.17 578.00,217.00 C578.00,217.55 576.63,218.00 574.96,218.00 C570.31,218.00 564.16,221.56 563.27,224.76 C562.84,226.27 562.50,246.85 562.50,270.50 L 562.50 313.50 L 588.82 313.77 L 615.14 314.03 L 609.66 318.50 L 604.19 322.96 L 562.50 323.50 L 562.24 363.35 C562.07,388.84 562.35,404.60 563.03,407.09 C564.15,411.27 566.21,412.80 573.75,415.05 C574.45,415.26 575.11,415.49 575.69,415.72 C574.75,415.56 573.51,415.34 572.25,415.09 C567.48,414.17 567.37,414.23 569.57,416.43 C570.13,416.98 571.20,417.41 572.40,417.67 C562.25,418.04 540.73,418.04 528.86,417.70 C529.56,417.55 530.00,417.35 530.00,417.08 C530.00,416.58 529.44,415.94 528.75,415.66 C527.98,415.35 528.15,415.13 529.19,415.08 C530.12,415.04 531.11,414.63 531.38,414.19 C531.66,413.74 529.22,414.02 525.97,414.82 C522.75,415.61 520.34,416.63 520.57,417.12 C520.57,417.11 520.57,417.11 520.57,417.11 ZM 690.00 417.00 C690.00,417.37 690.88,417.63 692.15,417.79 C681.10,418.05 662.86,417.99 652.94,417.64 C653.68,417.35 654.06,416.88 654.25,416.13 C654.69,414.46 654.37,414.36 651.12,415.11 C650.00,415.37 648.89,415.61 648.06,415.77 C648.43,415.65 648.83,415.54 649.25,415.45 C654.73,414.24 658.84,411.81 659.96,409.09 C660.67,407.36 660.94,392.78 660.76,365.00 L 660.50 323.50 L 649.25 323.22 C636.44,322.90 634.76,321.61 642.75,318.25 C652.90,313.97 667.82,312.43 680.21,314.37 L 684.93 315.11 L 685.21 362.14 L 685.50 409.18 L 687.91 411.13 C689.24,412.20 692.93,413.81 696.12,414.69 C697.12,414.97 698.04,415.27 698.82,415.57 C698.64,415.53 698.46,415.49 698.28,415.46 C696.20,415.11 693.60,414.61 692.50,414.35 C690.87,413.96 690.78,414.06 692.00,414.92 C693.29,415.82 693.26,415.97 691.75,415.98 C690.79,415.99 690.00,416.45 690.00,417.00 ZM 672.25 298.25 L 661.00 297.93 L 661.00 224.35 L 658.75 222.24 C656.72,220.34 653.75,218.87 650.95,218.28 C652.12,218.27 653.13,218.11 653.50,217.86 C654.05,217.49 655.62,216.98 657.00,216.73 C658.09,216.53 657.11,216.32 654.80,216.21 C659.39,216.07 665.70,216.00 673.56,216.00 C681.17,216.00 687.21,216.06 691.63,216.18 C690.55,216.33 690.38,216.60 691.00,217.00 C692.97,218.28 699.71,218.28 700.50,217.00 C700.16,217.55 698.77,218.00 697.41,218.00 C696.05,218.00 693.36,218.66 691.43,219.46 C685.21,222.07 685.00,223.47 685.00,263.47 C685.00,283.01 684.66,298.90 684.25,298.79 C683.84,298.67 678.44,298.43 672.25,298.25 ZM 471.57 161.88 C471.21,161.79 470.87,161.72 470.54,161.66 L 626.31 161.47 C766.80,161.29 789.32,161.46 790.56,162.70 C790.70,162.84 790.82,163.23 790.94,164.00 L 465.50 164.00 L 465.56 201.62 C465.24,173.35 464.70,165.07 463.78,165.63 C463.26,165.96 462.98,165.20 463.17,163.95 L 463.50 161.67 L 467.11 161.67 C466.91,161.75 466.75,161.85 466.62,161.98 C465.93,162.67 467.18,162.97 470.55,162.90 L 475.50 162.80 ZM 779.11 171.34 C780.34,172.82 780.54,194.57 780.75,331.83 L 780.75 331.92 L 780.50 492.00 L 626.75 491.75 L 472.50 491.51 L 779.50 490.50 L 779.50 331.50 C779.50,259.35 779.34,211.04 779.02,187.77 C779.02,181.28 779.02,177.25 779.01,176.25 L 779.00 174.00 L 778.71 174.00 C778.65,172.51 778.58,171.74 778.50,171.67 C778.33,171.54 778.23,171.42 778.18,171.34 ZM 376.00 626.58 C376.00,626.81 371.73,627.00 366.50,627.00 C360.54,627.00 357.00,626.61 357.00,625.95 C357.00,624.70 361.90,620.00 363.21,620.00 C363.71,620.00 363.89,619.63 363.61,619.17 C363.33,618.72 364.20,616.17 365.55,613.50 C366.90,610.84 368.00,607.94 368.00,607.05 C368.00,606.17 368.61,604.56 369.36,603.47 C370.64,601.61 372.10,597.99 377.53,583.20 C378.80,579.73 380.28,576.35 380.81,575.70 C381.34,575.04 382.09,572.92 382.48,571.00 C382.88,569.08 383.84,566.49 384.62,565.25 C386.15,562.84 390.00,562.15 390.00,564.29 C390.00,565.00 390.93,567.36 392.06,569.54 C394.16,573.56 400.49,588.56 406.62,604.00 C408.47,608.67 410.94,614.22 412.10,616.32 C413.25,618.41 413.92,620.41 413.58,620.75 C412.57,621.76 411.51,619.96 407.57,610.50 C405.50,605.55 402.73,599.17 401.41,596.31 C400.08,593.46 399.00,590.78 399.00,590.35 C399.00,589.69 396.13,582.57 390.28,568.75 C388.37,564.22 386.47,563.92 385.65,568.02 C385.31,569.68 383.95,573.39 382.62,576.27 C378.60,584.97 375.00,594.05 375.00,595.49 C375.00,596.24 374.44,597.46 373.75,598.20 C373.06,598.94 372.32,600.21 372.10,601.02 C371.19,604.38 368.05,612.80 366.11,617.12 C363.92,621.98 361.76,624.43 360.66,623.32 C360.30,622.96 360.00,623.19 360.00,623.83 C360.00,624.59 362.12,625.00 366.11,625.00 C372.17,625.00 372.20,624.98 369.98,623.19 C368.18,621.73 367.95,621.00 368.79,619.44 C369.37,618.37 370.80,614.76 371.98,611.41 L 374.12 605.32 L 378.31 605.26 C382.44,605.20 382.45,605.21 379.20,605.99 C377.38,606.42 375.81,606.93 375.70,607.13 C374.61,609.13 371.08,616.90 370.61,618.33 C370.20,619.56 370.98,621.14 373.00,623.16 C374.65,624.80 376.00,626.34 376.00,626.58 ZM 792.12 470.85 C792.07,468.10 791.99,465.43 791.86,463.00 C791.46,455.02 791.11,384.49 791.07,306.25 L 791.00 164.48 C791.86,171.67 792.04,203.53 792.14,319.82 L 792.15 330.56 C792.22,405.11 792.26,447.09 792.12,470.85 ZM 886.75 626.85 C884.97,628.63 863.00,627.79 863.00,625.94 C863.00,625.42 863.48,625.00 864.06,625.00 C864.64,625.00 864.85,624.56 864.52,624.03 C864.19,623.50 865.06,622.77 866.46,622.42 L 869.01 621.78 L 868.75 596.33 L 868.50 570.88 L 866.00 568.95 L 863.50 567.01 L 866.00 567.35 C870.37,567.94 870.86,570.68 870.96,595.04 C871.06,617.25 870.48,622.44 867.69,624.21 C867.03,624.63 870.21,624.98 874.75,624.98 L 883.00 625.00 L 881.00 623.00 C879.23,621.23 879.00,619.67 879.00,609.44 L 879.00 597.88 L 882.67 598.19 C884.69,598.36 886.52,599.04 886.74,599.70 C886.99,600.46 886.12,600.82 884.32,600.70 L 881.50 600.50 L 880.92 619.50 L 884.41 622.60 C887.03,624.94 887.61,625.99 886.75,626.85 ZM 976.00 626.97 C974.56,627.93 962.02,628.12 955.25,627.28 C951.35,626.79 951.17,625.71 954.49,622.82 C955.85,621.64 957.25,619.16 957.60,617.33 C958.55,612.26 959.67,613.36 959.05,618.75 C958.74,621.39 957.98,623.50 957.33,623.50 C956.69,623.50 955.83,623.84 955.42,624.25 C955.00,624.66 958.90,624.96 964.08,624.92 C969.26,624.88 972.83,624.60 972.00,624.31 C968.65,623.11 968.00,620.69 968.00,609.43 C968.00,599.21 968.23,597.83 970.66,593.38 C972.12,590.69 973.86,587.83 974.52,587.00 C975.17,586.17 977.33,582.47 979.30,578.76 C983.00,571.82 986.93,567.10 989.20,566.87 C989.92,566.80 988.92,566.41 987.00,566.00 C983.58,565.28 983.57,565.26 986.50,565.20 C988.15,565.17 990.37,565.48 991.44,565.90 C993.13,566.56 992.85,566.96 989.23,568.99 C986.95,570.27 984.61,572.49 984.04,573.91 C983.46,575.33 981.57,578.75 979.84,581.50 C978.10,584.25 975.29,589.20 973.59,592.50 C970.53,598.43 970.51,598.63 971.00,610.29 C971.38,619.25 971.86,622.32 973.00,623.07 C973.83,623.61 975.17,624.49 976.00,625.01 C977.33,625.86 977.33,626.07 976.00,626.97 ZM 815.79 625.12 C810.91,627.62 799.94,628.53 793.66,626.95 C791.55,626.43 787.84,624.57 785.42,622.84 C778.55,617.90 776.95,612.45 776.39,592.01 C776.14,582.93 775.78,573.58 775.59,571.23 C775.30,567.69 775.48,567.15 776.62,568.10 C777.70,569.00 778.00,573.21 778.00,587.57 C778.00,608.74 778.89,614.16 783.11,618.83 C790.03,626.49 804.68,629.02 814.00,624.15 C824.20,618.82 825.24,615.83 825.94,590.00 C826.25,578.72 826.86,568.94 827.31,568.25 C827.75,567.56 829.10,567.01 830.31,567.03 C832.42,567.06 832.43,567.12 830.62,568.48 C827.88,570.56 827.09,576.48 827.04,595.30 L 827.00 612.10 L 823.54 617.51 C821.19,621.17 818.69,623.63 815.79,625.12 ZM 790.22 502.75 C788.52,504.08 784.56,504.11 766.50,502.96 C760.45,502.57 740.74,502.20 722.69,502.13 C701.10,502.04 690.09,501.66 690.50,501.00 C690.91,500.34 653.34,500.00 578.56,500.00 L 607.56 500.00 C699.43,500.00 748.91,500.34 748.51,500.98 C748.13,501.59 754.46,502.08 765.71,502.29 C784.44,502.65 789.86,502.48 790.85,501.48 C791.21,501.12 791.51,498.64 791.74,494.95 C791.48,501.37 791.07,502.09 790.48,502.56 C790.40,502.62 790.31,502.68 790.22,502.75 ZM 722.70 627.37 C724.16,628.83 708.11,627.77 702.73,626.05 C688.06,621.36 679.64,607.77 681.45,591.73 C682.31,584.10 683.35,581.50 687.58,576.33 C691.54,571.50 695.32,568.60 700.44,566.46 C705.83,564.21 704.70,566.19 699.14,568.74 C692.31,571.87 686.77,578.25 684.16,586.00 C681.52,593.81 681.49,595.73 683.89,604.11 C686.44,613.03 687.28,614.38 693.10,618.99 C699.20,623.80 706.23,626.19 715.29,626.50 C719.02,626.63 722.36,627.02 722.70,627.37 ZM 647.68 626.22 C645.84,627.39 606.00,627.18 606.00,626.00 C606.00,625.45 606.48,625.00 607.06,625.00 C607.64,625.00 607.88,624.61 607.58,624.13 C607.29,623.66 607.94,622.46 609.02,621.48 C610.51,620.13 611.02,618.31 611.10,614.10 C611.18,609.79 611.38,609.07 612.00,611.00 C613.54,615.81 613.09,620.27 610.83,622.69 L 608.65 625.00 L 628.16 625.00 C643.05,625.00 647.69,624.70 647.75,623.75 C647.80,623.06 648.06,621.60 648.32,620.50 C648.59,619.40 648.91,618.05 649.02,617.50 C649.48,615.35 648.93,614.81 647.50,616.00 C646.37,616.93 646.00,616.95 646.00,616.06 C646.00,612.61 649.93,609.47 651.36,611.77 C652.13,613.01 648.97,625.40 647.68,626.22 ZM 563.00 621.16 C563.00,622.10 539.67,622.34 538.75,621.41 C538.42,621.09 539.36,618.83 540.83,616.39 C543.90,611.30 546.65,606.73 549.13,602.61 C568.60,570.27 570.84,566.54 571.33,566.76 C571.46,566.82 571.47,567.13 571.62,567.29 C571.97,567.63 570.95,569.95 569.37,572.43 C566.22,577.39 563.23,582.35 557.87,591.50 C555.94,594.80 552.37,600.77 549.93,604.78 C542.43,617.10 541.03,619.48 541.02,620.00 C541.01,620.28 545.95,620.46 552.00,620.41 C558.05,620.37 563.00,620.70 563.00,621.16 ZM 921.00 626.22 C921.00,626.65 919.42,627.00 917.50,627.00 C914.04,627.00 912.36,625.04 915.75,624.96 C917.08,624.93 916.90,624.59 915.00,623.53 C912.32,622.03 908.93,617.90 900.56,605.92 C896.10,599.53 895.47,598.08 896.50,596.67 C897.17,595.75 898.16,595.00 898.71,595.00 C899.25,595.00 901.27,593.46 903.21,591.59 C908.10,586.84 908.91,580.49 905.49,573.74 C903.38,569.57 903.31,569.10 904.91,569.95 C907.20,571.18 910.00,576.95 910.00,580.46 C910.00,586.42 903.28,596.00 899.10,596.00 C896.82,596.00 898.17,599.61 903.18,606.93 C908.50,614.72 915.56,623.08 916.62,622.84 C917.51,622.64 921.00,625.33 921.00,626.22 ZM 720.00 622.13 C720.00,622.61 718.76,622.97 717.25,622.93 C712.35,622.81 706.04,620.28 701.60,616.63 C697.14,612.98 692.46,604.84 693.41,602.38 C693.70,601.62 693.58,601.00 693.13,601.00 C692.69,601.00 692.23,598.30 692.11,595.00 C691.99,591.70 692.32,589.00 692.85,589.00 C693.37,589.00 693.80,587.43 693.80,585.51 C693.80,583.60 694.63,580.61 695.65,578.87 C697.78,575.24 704.67,569.34 705.65,570.31 C706.01,570.68 705.06,571.95 703.55,573.14 C696.63,578.58 694.46,584.00 694.56,595.61 C694.67,609.58 702.82,619.60 715.01,620.77 C717.75,621.04 720.00,621.65 720.00,622.13 ZM 571.77 625.75 C570.49,627.33 526.47,627.57 525.50,626.00 C525.09,625.34 532.80,625.00 547.88,625.00 C560.53,625.00 571.12,624.62 571.40,624.15 C571.69,623.69 572.23,621.33 572.60,618.90 L 573.27 614.50 L 570.14 617.43 C568.43,619.04 566.70,620.03 566.31,619.64 C565.92,619.25 566.82,617.79 568.32,616.40 C569.82,615.02 570.78,613.46 570.46,612.94 C570.14,612.42 570.33,612.00 570.88,612.00 C571.43,612.00 572.19,612.50 572.57,613.11 C573.04,613.88 573.50,613.82 574.07,612.89 C574.52,612.16 575.22,611.89 575.62,612.29 C576.43,613.10 573.38,623.76 571.77,625.75 ZM 490.08 618.08 C493.03,615.12 493.83,613.00 492.00,613.00 C491.45,613.00 491.00,613.61 491.00,614.35 C491.00,615.24 490.47,616.14 489.51,616.96 C490.37,615.95 491.00,614.65 491.00,613.78 C491.00,612.52 491.59,611.97 492.75,612.16 C493.71,612.32 495.06,612.10 495.75,611.67 C496.44,611.23 497.00,611.33 497.00,611.89 C497.00,613.13 494.45,622.85 493.50,625.21 C492.88,626.76 490.59,626.93 469.96,626.96 C455.83,626.98 446.88,626.61 446.50,626.00 C446.10,625.35 453.86,625.00 468.87,625.00 C470.92,625.00 472.79,625.00 474.49,625.01 C486.97,625.04 490.70,625.04 492.14,623.23 C492.95,622.21 493.03,620.61 493.54,618.11 L 494.22 614.72 L 491.86 616.98 C490.66,618.12 489.50,619.02 488.18,619.72 C488.77,619.31 489.38,618.77 490.08,618.08 ZM 797.00 620.39 C797.00,623.00 791.62,618.31 789.09,613.51 C787.17,609.85 787.00,607.90 787.00,589.39 C787.00,568.48 787.24,567.23 791.27,567.30 C792.88,567.33 792.86,567.52 791.02,569.48 C789.14,571.48 789.00,572.95 789.00,590.35 C789.00,610.69 789.65,614.01 794.38,617.73 C795.82,618.86 797.00,620.06 797.00,620.39 ZM 641.88 603.07 C640.92,603.58 639.93,604.00 639.67,604.00 C638.91,604.00 637.96,600.88 638.47,600.06 C638.72,599.64 637.71,598.70 636.22,597.98 C633.94,596.87 633.80,596.59 635.32,596.24 C636.33,596.01 638.02,596.61 639.07,597.57 L 639.14 597.63 C639.99,598.40 640.49,598.85 640.80,598.74 C641.24,598.59 641.27,597.25 641.38,594.00 C641.51,589.80 641.12,589.28 639.27,591.13 C637.45,592.95 623.98,593.58 622.91,591.89 C622.43,591.13 622.11,586.90 622.20,582.50 L 622.37 574.50 L 622.93 582.50 L 623.50 590.50 L 629.39 590.80 C634.62,591.07 635.59,590.81 638.05,588.46 C640.57,586.04 640.86,585.97 641.29,587.65 C641.72,589.30 641.78,589.31 641.88,587.75 C641.95,586.79 642.44,586.00 642.98,586.00 C643.56,586.00 643.89,589.33 643.79,594.07 C643.65,600.60 643.29,602.31 641.88,603.07 ZM 485.77 619.00 C484.92,619.31 484.00,619.58 483.00,619.80 L 478.50 620.79 L 482.83 620.89 C483.97,620.92 484.88,620.89 485.67,620.74 C482.55,621.71 478.34,622.00 471.52,622.00 L 459.97 622.00 L 462.60 616.75 C465.71,610.57 470.90,601.68 475.91,594.00 C477.88,590.97 480.19,587.15 481.04,585.50 C483.86,580.04 486.49,576.01 487.25,576.01 C488.41,576.00 488.16,576.85 486.13,579.79 C485.10,581.28 480.28,589.25 475.41,597.50 C470.54,605.75 466.29,612.72 465.95,613.00 C465.49,613.38 462.01,619.90 462.00,620.40 C462.00,620.46 467.59,620.26 474.44,619.96 C480.31,619.71 483.66,619.46 485.77,619.00 ZM 882.09 593.60 C883.02,594.73 882.82,595.00 881.09,595.00 C878.99,595.00 878.95,594.72 879.22,582.25 L 879.50 569.50 L 883.66 569.20 C888.86,568.82 894.32,571.04 896.55,574.43 C898.95,578.10 899.53,585.00 897.65,587.50 C896.24,589.36 896.18,589.22 896.69,585.37 C897.87,576.39 893.12,570.53 885.19,571.19 L 881.50 571.50 L 881.21 581.85 C881.03,588.63 881.33,592.69 882.09,593.60 ZM 312.80 622.80 C311.43,624.17 310.00,624.38 310.00,623.20 C310.00,622.76 310.47,621.93 311.04,621.36 C311.66,620.74 311.96,616.00 311.79,609.41 L 311.50 598.50 L 299.00 598.00 C292.12,597.72 285.94,597.89 285.25,598.37 C284.43,598.95 284.00,598.76 284.00,597.83 C284.00,596.67 286.72,596.42 298.99,596.46 L 313.99 596.50 L 313.99 609.05 C314.00,617.48 313.61,621.99 312.80,622.80 ZM 527.73 622.25 C527.08,623.96 524.96,624.74 525.04,623.25 C525.07,622.84 527.09,619.35 529.53,615.50 C531.98,611.65 534.89,606.92 536.00,605.00 C537.11,603.08 538.46,600.83 539.00,600.00 C544.42,591.66 554.00,574.34 554.00,572.87 C554.00,571.92 553.72,571.45 552.07,571.21 C554.02,571.40 555.00,571.70 555.00,572.12 C555.00,572.85 555.58,572.76 556.66,571.87 C556.90,571.67 557.10,571.50 557.25,571.35 C556.58,572.95 554.95,576.10 552.97,579.59 C547.59,589.08 547.20,589.75 542.39,597.49 C535.03,609.35 528.36,620.63 527.73,622.25 ZM 451.04 618.75 C449.36,621.64 447.52,624.00 446.96,624.00 C445.68,624.00 446.51,622.41 454.53,609.50 C457.95,604.00 463.37,595.00 466.58,589.50 C469.79,584.00 472.69,579.28 473.04,579.00 C473.39,578.72 474.18,577.60 474.81,576.50 C475.43,575.40 475.95,574.98 475.97,575.56 C475.99,576.14 474.38,579.29 472.40,582.56 C470.42,585.83 468.42,589.40 467.96,590.50 C467.50,591.60 464.19,597.22 460.61,603.00 C457.03,608.78 452.72,615.86 451.04,618.75 ZM 274.03 621.42 C273.49,622.84 272.31,624.00 271.41,624.00 C269.90,624.00 269.90,623.80 271.37,621.56 C273.70,618.00 274.27,572.10 272.00,570.33 C271.18,569.69 270.79,568.88 271.13,568.53 C271.48,568.19 272.41,568.55 273.20,569.34 C274.36,570.50 274.67,575.43 274.82,594.81 C274.93,608.60 274.59,619.94 274.03,621.42 ZM 821.36 608.36 C820.05,617.96 819.51,612.34 819.83,592.27 L 820.15 571.53 L 817.33 569.27 C814.72,567.18 814.66,567.01 816.63,567.00 C818.91,567.00 821.41,569.26 820.32,570.34 C819.96,570.70 820.19,571.00 820.83,571.00 C822.12,571.00 822.53,599.86 821.36,608.36 ZM 386.98 582.95 C386.35,581.44 385.64,580.47 385.07,580.15 C385.60,580.00 386.00,580.02 386.00,580.21 C386.00,580.41 387.80,584.99 390.00,590.38 C392.20,595.76 394.00,600.36 394.00,600.59 C394.00,600.81 393.14,601.00 392.09,601.00 C390.72,601.00 390.32,600.47 390.68,599.13 C391.17,597.25 386.89,587.67 385.06,586.54 C384.06,585.92 380.77,592.37 379.63,597.18 C379.15,599.22 379.41,599.96 380.75,600.31 C381.85,600.60 381.50,600.81 379.81,600.88 C378.33,600.95 376.90,600.64 376.63,600.21 C376.03,599.24 381.60,585.39 384.00,581.32 C384.00,581.39 384.00,581.46 384.00,581.54 C384.00,583.70 387.32,588.54 387.80,587.09 C388.02,586.43 387.65,584.57 386.98,582.95 ZM 968.00 591.56 C968.00,590.06 966.20,588.46 965.41,589.26 C965.03,589.64 965.27,590.73 965.73,591.63 C964.41,589.91 962.25,586.28 958.30,579.78 C952.55,570.32 952.08,568.63 954.75,567.08 C956.12,566.28 955.42,566.03 951.50,565.90 C946.87,565.75 946.76,565.69 950.00,565.09 C951.92,564.74 954.73,564.89 956.23,565.44 C958.95,566.42 958.95,566.43 956.99,568.51 C955.04,570.59 955.05,570.61 959.09,577.55 C963.85,585.71 966.92,589.25 968.66,588.58 C969.64,588.20 969.67,588.64 968.80,590.55 C968.29,591.67 967.97,592.51 967.56,592.80 C967.82,592.55 968.00,592.09 968.00,591.56 ZM 732.66 624.92 C728.82,626.78 724.00,627.70 724.00,626.57 C724.00,626.33 726.44,625.43 729.42,624.57 C734.25,623.16 734.92,622.64 735.54,619.74 C735.92,617.96 736.73,615.88 737.35,615.12 C738.27,613.98 737.89,613.87 735.14,614.47 L 731.82 615.20 L 733.64 612.35 C736.99,607.09 739.00,607.07 738.99,612.31 C738.98,619.20 737.22,622.72 732.66,624.92 ZM 645.02 575.04 C645.48,575.90 645.47,577.24 644.99,578.02 C644.31,579.12 643.90,578.87 643.14,576.87 C641.27,571.95 639.41,571.00 631.63,571.00 C627.52,571.00 623.90,571.50 623.25,572.15 C622.39,573.01 622.14,572.75 622.27,571.06 C622.43,568.89 622.73,568.83 631.12,569.16 C639.96,569.51 642.67,570.65 645.02,575.04 ZM 291.50 626.00 C291.15,626.57 286.16,627.00 279.94,627.00 C273.31,627.00 269.00,626.61 269.00,626.00 C269.00,625.41 272.73,625.00 278.19,625.00 C286.37,625.00 287.17,624.84 285.44,623.58 C284.38,622.80 283.78,621.88 284.12,621.54 C285.01,620.65 290.04,623.13 289.41,624.15 C289.12,624.62 289.61,625.00 290.50,625.00 C291.39,625.00 291.84,625.45 291.50,626.00 ZM 738.41 575.67 C739.02,581.28 738.30,583.97 736.64,582.31 C736.29,581.95 736.00,578.62 736.00,574.91 L 736.00 568.14 L 730.50 566.91 C727.47,566.24 725.00,565.25 725.00,564.73 C725.00,564.21 726.17,564.08 727.62,564.44 C729.06,564.80 731.55,565.36 733.15,565.68 C736.78,566.41 737.56,567.89 738.41,575.67 ZM 641.00 621.00 C641.00,622.47 624.68,622.28 623.20,620.80 C622.51,620.11 622.06,617.22 622.15,614.05 L 622.29 608.50 L 623.31 614.25 L 624.32 620.00 L 632.66 620.00 C637.55,620.00 641.00,620.41 641.00,621.00 ZM 401.84 621.59 C401.65,622.55 400.87,623.54 400.10,623.80 C399.09,624.14 398.85,623.67 399.25,622.16 C399.55,621.00 398.73,617.45 397.42,614.28 C394.94,608.24 394.49,606.00 395.75,606.00 C396.90,606.01 402.22,619.62 401.84,621.59 ZM 327.42 627.13 C328.09,626.05 316.69,625.08 312.00,625.83 L 310.04 626.14 L 312.50 625.72 C314.70,625.33 318.72,625.02 321.44,625.01 C325.77,625.00 326.16,624.84 324.58,623.68 C323.59,622.96 322.94,621.65 323.14,620.77 C323.43,619.50 324.31,619.85 327.48,622.53 C329.66,624.37 331.13,626.21 330.73,626.61 C330.44,626.89 329.08,627.13 327.20,627.30 C327.31,627.25 327.38,627.19 327.42,627.13 ZM 490.95 571.36 C489.77,573.36 488.38,575.00 487.86,575.00 C487.34,575.00 488.10,572.97 489.55,570.50 L 492.19 566.00 L 482.85 565.87 C474.62,565.75 474.10,565.64 478.50,564.98 C484.60,564.06 492.01,564.86 492.64,566.50 C492.89,567.17 492.14,569.35 490.95,571.36 ZM 527.36 573.36 C527.01,575.91 526.28,578.00 525.72,578.00 C524.42,578.00 525.50,567.10 526.94,565.66 C528.20,564.40 528.31,566.47 527.36,573.36 ZM 314.00 575.06 C314.00,578.33 313.59,581.00 313.09,581.00 C312.21,581.00 311.09,569.23 311.89,568.44 C313.15,567.19 314.00,569.87 314.00,575.06 ZM 717.25 564.70 C714.09,564.59 709.92,564.86 708.00,565.29 C705.22,565.92 704.87,565.86 706.31,564.96 C708.86,563.37 723.00,562.39 723.00,563.81 C723.00,564.50 720.88,564.83 717.25,564.70 ZM 286.00 565.00 C286.00,565.59 282.65,565.96 277.75,565.90 C272.09,565.83 270.28,565.55 272.00,565.00 C275.66,563.83 286.00,563.83 286.00,565.00 ZM 945.13 574.25 C945.74,575.38 945.71,576.00 945.07,576.00 C944.52,576.00 943.55,574.99 942.91,573.75 C942.27,572.51 940.56,570.50 939.12,569.29 C937.68,568.07 937.08,567.06 937.80,567.04 C939.17,567.00 943.56,571.31 945.13,574.25 ZM 728.86 619.94 C725.20,622.17 723.00,622.57 723.00,621.00 C723.00,620.45 723.56,620.00 724.25,619.99 C724.94,619.99 726.80,619.31 728.40,618.48 C732.52,616.33 732.89,617.49 728.86,619.94 ZM 326.35 567.11 C326.52,567.32 325.86,569.53 324.88,572.00 L 323.11 576.50 L 323.05 572.87 C323.02,570.78 323.65,568.71 324.52,567.98 C325.36,567.28 326.19,566.89 326.35,567.11 ZM 630.80 654.93 C630.91,655.21 631.01,655.48 631.15,655.73 C632.06,657.37 634.46,658.19 649.64,658.60 C639.71,658.56 633.84,658.53 633.47,658.51 C630.40,658.34 628.49,656.94 630.02,655.99 C630.54,655.67 630.79,655.30 630.80,654.93 ZM 535.45 570.76 C534.93,571.19 533.26,572.61 531.75,573.94 C530.24,575.26 529.00,575.82 529.00,575.17 C529.00,573.41 532.76,570.00 534.70,570.00 C535.65,570.00 535.98,570.34 535.45,570.76 ZM 958.56 597.23 C958.87,597.54 958.98,599.75 958.81,602.15 L 958.50 606.50 L 957.81 602.02 C957.15,597.68 957.40,596.07 958.56,597.23 ZM 456.00 565.00 C456.00,565.55 454.88,566.00 453.50,566.00 C452.12,566.00 451.00,565.55 451.00,565.00 C451.00,564.45 452.12,564.00 453.50,564.00 C454.88,564.00 456.00,564.45 456.00,565.00 ZM 891.97 594.04 C891.16,594.55 889.60,594.96 888.50,594.94 C886.85,594.92 887.00,594.65 889.34,593.38 C892.26,591.80 894.60,592.38 891.97,594.04 ZM 901.00 567.50 C902.60,569.42 900.97,569.44 898.44,567.53 C896.81,566.30 896.76,566.06 898.13,566.03 C899.02,566.01 900.32,566.67 901.00,567.50 ZM 612.61 571.42 C612.94,572.29 612.77,573.00 612.22,573.00 C611.68,573.00 611.00,572.10 610.71,571.00 C610.42,569.90 610.60,569.00 611.09,569.00 C611.59,569.00 612.00,569.19 612.00,569.42 C612.00,569.65 612.27,570.55 612.61,571.42 ZM 380.00 594.94 C380.00,594.42 379.55,594.00 379.00,594.00 C378.45,594.00 378.00,594.70 378.00,595.56 C378.00,596.42 378.45,596.84 379.00,596.50 C379.55,596.16 380.00,595.46 380.00,594.94 ZM 655.00 219.00 C656.92,220.24 657.27,220.24 656.50,219.00 C656.16,218.45 655.35,218.01 654.69,218.02 C653.98,218.02 654.10,218.42 655.00,219.00 ZM 555.41 569.87 C554.41,569.65 553.12,569.49 551.69,569.37 C554.72,569.54 557.17,569.84 557.57,570.24 C557.61,570.27 557.59,570.39 557.54,570.57 C557.32,570.32 556.64,570.14 555.41,569.87 ZM 520.53 216.89 C520.95,217.30 521.95,217.73 523.02,218.01 C522.95,218.01 522.88,218.01 522.81,218.01 C521.88,218.00 520.84,217.55 520.50,217.00 C520.48,216.96 520.49,216.93 520.53,216.89 ZM 308.55 626.40 L 311.50 627.08 C312.15,627.23 312.95,627.35 313.82,627.46 C312.85,627.38 312.05,627.28 311.50,627.14 L 308.50 626.41 ZM 542.23 570.94 C539.50,570.88 538.18,570.74 537.92,570.45 C538.36,570.71 539.77,570.86 542.23,570.94 ZM 540.52 569.42 C539.68,569.51 538.98,569.63 538.51,569.78 C538.87,569.63 539.58,569.51 540.52,569.42 ZM 465.98 485.59 C465.98,487.62 465.98,489.40 465.98,490.92 L 466.00 498.54 L 465.98 490.75 C465.98,490.08 465.98,488.32 465.98,485.59 ZM 646.38 216.79 C646.21,216.87 646.08,216.95 646.00,217.03 C646.00,217.02 646.00,217.01 646.00,217.00 C646.00,216.93 646.13,216.86 646.38,216.79 ZM 701.42 417.12 C701.41,417.14 701.41,417.15 701.40,417.17 C701.38,417.20 701.33,417.22 701.25,417.25 C701.32,417.21 701.37,417.16 701.42,417.12 ZM 577.95 417.23 C577.97,417.19 577.98,417.15 577.99,417.11 C578.00,417.13 578.00,417.15 578.00,417.17 C578.00,417.19 577.98,417.21 577.95,417.23 ZM 646.00 417.03 C646.00,417.03 646.00,417.02 646.00,417.02 C646.00,417.03 646.00,417.04 646.00,417.05 C646.00,417.04 646.00,417.04 646.00,417.03 Z" fill="rgb(226,220,205)"/>
<path d="M 0.00 418.00 L 0.00 0.00 L 627.00 0.00 L 1254.00 0.00 L 1254.00 418.00 L 1254.00 836.00 L 627.00 836.00 L 0.00 836.00 L 0.00 418.00 ZM 631.81 666.54 L 635.11 663.50 L 746.81 663.49 C808.24,663.48 859.06,663.11 859.75,662.68 C860.44,662.24 861.00,661.23 861.00,660.44 C861.00,659.19 845.84,659.00 748.95,659.00 C630.51,659.00 632.39,659.07 630.70,654.67 C630.40,653.89 628.94,652.95 627.44,652.57 C625.28,652.03 624.11,652.47 621.76,654.70 C616.79,659.40 616.50,661.53 620.25,666.08 C624.19,670.85 627.01,670.97 631.81,666.54 ZM 606.94 662.54 C607.52,662.18 608.00,661.46 608.00,660.94 C608.00,660.36 567.16,660.00 500.92,660.00 C415.69,660.00 393.92,660.26 394.25,661.25 C394.58,662.23 410.20,662.61 466.08,663.00 C551.87,663.61 605.49,663.43 606.94,662.54 ZM 330.73 626.61 C331.13,626.21 329.66,624.37 327.48,622.53 C324.31,619.85 323.43,619.50 323.14,620.77 C322.94,621.65 323.59,622.96 324.58,623.68 C326.16,624.84 325.77,625.00 321.44,625.01 C318.72,625.02 314.70,625.33 312.50,625.72 L 308.50 626.41 L 311.50 627.14 C315.13,628.03 329.71,627.62 330.73,626.61 ZM 722.70 627.37 C722.36,627.02 719.02,626.63 715.29,626.50 C706.23,626.19 699.20,623.80 693.10,618.99 C687.28,614.38 686.44,613.03 683.89,604.11 C681.49,595.73 681.52,593.81 684.16,586.00 C686.77,578.25 692.31,571.87 699.14,568.74 C704.70,566.19 705.83,564.21 700.44,566.46 C695.32,568.60 691.54,571.50 687.58,576.33 C683.35,581.50 682.31,584.10 681.45,591.73 C679.64,607.77 688.06,621.36 702.73,626.05 C708.11,627.77 724.16,628.83 722.70,627.37 ZM 815.79 625.12 C818.69,623.63 821.19,621.17 823.54,617.51 L 827.00 612.10 L 827.04 595.30 C827.09,576.48 827.88,570.56 830.62,568.48 C832.43,567.12 832.42,567.06 830.31,567.03 C829.10,567.01 827.75,567.56 827.31,568.25 C826.86,568.94 826.25,578.72 825.94,590.00 C825.24,615.83 824.20,618.82 814.00,624.15 C804.68,629.02 790.03,626.49 783.11,618.83 C778.89,614.16 778.00,608.74 778.00,587.57 C778.00,573.21 777.70,569.00 776.62,568.10 C775.48,567.15 775.30,567.69 775.59,571.23 C775.78,573.58 776.14,582.93 776.39,592.01 C776.95,612.45 778.55,617.90 785.42,622.84 C787.84,624.57 791.55,626.43 793.66,626.95 C799.94,628.53 810.91,627.62 815.79,625.12 ZM 886.75 626.85 C887.61,625.99 887.03,624.94 884.41,622.60 L 880.92 619.50 L 881.21 610.00 L 881.50 600.50 L 884.32 600.70 C886.12,600.82 886.99,600.46 886.74,599.70 C886.52,599.04 884.69,598.36 882.67,598.19 L 879.00 597.88 L 879.00 609.44 C879.00,619.67 879.23,621.23 881.00,623.00 L 883.00 625.00 L 874.75 624.98 C870.21,624.98 867.03,624.63 867.69,624.21 C870.48,622.44 871.06,617.25 870.96,595.04 C870.86,570.68 870.37,567.94 866.00,567.35 L 863.50 567.01 L 866.00 568.95 L 868.50 570.88 L 868.75 596.33 L 869.01 621.78 L 866.46 622.42 C865.06,622.77 864.19,623.50 864.52,624.03 C864.85,624.56 864.64,625.00 864.06,625.00 C863.48,625.00 863.00,625.42 863.00,625.94 C863.00,627.79 884.97,628.63 886.75,626.85 ZM 976.00 626.97 C977.33,626.07 977.33,625.86 976.00,625.01 C975.17,624.49 973.83,623.61 973.00,623.07 C971.86,622.32 971.38,619.25 971.00,610.29 C970.51,598.63 970.53,598.43 973.59,592.50 C975.29,589.20 978.10,584.25 979.84,581.50 C981.57,578.75 983.46,575.33 984.04,573.91 C984.61,572.49 986.95,570.27 989.23,568.99 C992.85,566.96 993.13,566.56 991.44,565.90 C990.37,565.48 988.15,565.17 986.50,565.20 C983.57,565.26 983.58,565.28 987.00,566.00 C988.92,566.41 989.92,566.80 989.20,566.87 C986.93,567.10 983.00,571.82 979.30,578.76 C977.33,582.47 975.17,586.17 974.52,587.00 C973.86,587.83 972.12,590.69 970.66,593.38 C968.23,597.83 968.00,599.21 968.00,609.43 C968.00,620.69 968.65,623.11 972.00,624.31 C972.83,624.60 969.26,624.88 964.08,624.92 C958.90,624.96 955.00,624.66 955.42,624.25 C955.83,623.84 956.69,623.50 957.33,623.50 C957.98,623.50 958.74,621.39 959.05,618.75 C959.67,613.36 958.55,612.26 957.60,617.33 C957.25,619.16 955.85,621.64 954.49,622.82 C951.17,625.71 951.35,626.79 955.25,627.28 C962.02,628.12 974.56,627.93 976.00,626.97 ZM 291.50 626.00 C291.84,625.45 291.39,625.00 290.50,625.00 C289.61,625.00 289.12,624.62 289.41,624.15 C290.04,623.13 285.01,620.65 284.12,621.54 C283.78,621.88 284.38,622.80 285.44,623.58 C287.17,624.84 286.37,625.00 278.19,625.00 C272.73,625.00 269.00,625.41 269.00,626.00 C269.00,626.61 273.31,627.00 279.94,627.00 C286.16,627.00 291.15,626.57 291.50,626.00 ZM 376.00 626.58 C376.00,626.34 374.65,624.80 373.00,623.16 C370.98,621.14 370.20,619.56 370.61,618.33 C371.08,616.90 374.61,609.13 375.70,607.13 C375.81,606.93 377.38,606.42 379.20,605.99 C382.45,605.21 382.44,605.20 378.31,605.26 L 374.12 605.32 L 371.98 611.41 C370.80,614.76 369.37,618.37 368.79,619.44 C367.95,621.00 368.18,621.73 369.98,623.19 C372.20,624.98 372.17,625.00 366.11,625.00 C362.12,625.00 360.00,624.59 360.00,623.83 C360.00,623.19 360.30,622.96 360.66,623.32 C361.76,624.43 363.92,621.98 366.11,617.12 C368.05,612.80 371.19,604.38 372.10,601.02 C372.32,600.21 373.06,598.94 373.75,598.20 C374.44,597.46 375.00,596.24 375.00,595.49 C375.00,594.05 378.60,584.97 382.62,576.27 C383.95,573.39 385.31,569.68 385.65,568.02 C386.47,563.92 388.37,564.22 390.28,568.75 C396.13,582.57 399.00,589.69 399.00,590.35 C399.00,590.78 400.08,593.46 401.41,596.31 C402.73,599.17 405.50,605.55 407.57,610.50 C411.51,619.96 412.57,621.76 413.58,620.75 C413.92,620.41 413.25,618.41 412.10,616.32 C410.94,614.22 408.47,608.67 406.62,604.00 C400.49,588.56 394.16,573.56 392.06,569.54 C390.93,567.36 390.00,565.00 390.00,564.29 C390.00,562.15 386.15,562.84 384.62,565.25 C383.84,566.49 382.88,569.08 382.48,571.00 C382.09,572.92 381.34,575.04 380.81,575.70 C380.28,576.35 378.80,579.73 377.53,583.20 C372.10,597.99 370.64,601.61 369.36,603.47 C368.61,604.56 368.00,606.17 368.00,607.05 C368.00,607.94 366.90,610.84 365.55,613.50 C364.20,616.17 363.33,618.72 363.61,619.17 C363.89,619.63 363.71,620.00 363.21,620.00 C361.90,620.00 357.00,624.70 357.00,625.95 C357.00,626.61 360.54,627.00 366.50,627.00 C371.73,627.00 376.00,626.81 376.00,626.58 ZM 417.50 626.00 C414.75,624.82 407.83,624.82 406.00,626.00 C404.96,626.67 406.81,626.95 412.00,626.91 C417.11,626.88 418.86,626.59 417.50,626.00 ZM 493.50 625.21 C494.45,622.85 497.00,613.13 497.00,611.89 C497.00,611.33 496.44,611.23 495.75,611.67 C495.06,612.10 493.71,612.32 492.75,612.16 C491.59,611.97 491.00,612.52 491.00,613.78 C491.00,614.83 490.07,616.53 488.94,617.56 C487.24,619.10 484.68,619.52 474.44,619.96 C467.59,620.26 462.00,620.46 462.00,620.40 C462.01,619.90 465.49,613.38 465.95,613.00 C466.29,612.72 470.54,605.75 475.41,597.50 C480.28,589.25 485.10,581.28 486.13,579.79 C488.16,576.85 488.41,576.00 487.25,576.01 C486.49,576.01 483.86,580.04 481.04,585.50 C480.19,587.15 477.88,590.97 475.91,594.00 C470.90,601.68 465.71,610.57 462.60,616.75 L 459.97 622.00 L 471.52 622.00 C483.77,622.00 487.60,621.05 491.86,616.98 L 494.22 614.72 L 493.54 618.11 C492.01,625.65 494.35,625.00 468.87,625.00 C453.86,625.00 446.10,625.35 446.50,626.00 C446.88,626.61 455.83,626.98 469.96,626.96 C490.59,626.93 492.88,626.76 493.50,625.21 ZM 571.77 625.75 C573.38,623.76 576.43,613.10 575.62,612.29 C575.22,611.89 574.52,612.16 574.07,612.89 C573.50,613.82 573.04,613.88 572.57,613.11 C572.19,612.50 571.43,612.00 570.88,612.00 C570.33,612.00 570.14,612.42 570.46,612.94 C570.78,613.46 569.82,615.02 568.32,616.40 C566.82,617.79 565.92,619.25 566.31,619.64 C566.70,620.03 568.43,619.04 570.14,617.43 L 573.27 614.50 L 572.60 618.90 C572.23,621.33 571.69,623.69 571.40,624.15 C571.12,624.62 560.53,625.00 547.88,625.00 C532.80,625.00 525.09,625.34 525.50,626.00 C526.47,627.57 570.49,627.33 571.77,625.75 ZM 647.68 626.22 C648.97,625.40 652.13,613.01 651.36,611.77 C649.93,609.47 646.00,612.61 646.00,616.06 C646.00,616.95 646.37,616.93 647.50,616.00 C648.93,614.81 649.48,615.35 649.02,617.50 C648.91,618.05 648.59,619.40 648.32,620.50 C648.06,621.60 647.80,623.06 647.75,623.75 C647.69,624.70 643.05,625.00 628.16,625.00 L 608.65 625.00 L 610.83 622.69 C613.09,620.27 613.54,615.81 612.00,611.00 C611.38,609.07 611.18,609.79 611.10,614.10 C611.02,618.31 610.51,620.13 609.02,621.48 C607.94,622.46 607.29,623.66 607.58,624.13 C607.88,624.61 607.64,625.00 607.06,625.00 C606.48,625.00 606.00,625.45 606.00,626.00 C606.00,627.18 645.84,627.39 647.68,626.22 ZM 732.66 624.92 C737.22,622.72 738.98,619.20 738.99,612.31 C739.00,607.07 736.99,607.09 733.64,612.35 L 731.82 615.20 L 735.14 614.47 C737.89,613.87 738.27,613.98 737.35,615.12 C736.73,615.88 735.92,617.96 735.54,619.74 C734.92,622.64 734.25,623.16 729.42,624.57 C726.44,625.43 724.00,626.33 724.00,626.57 C724.00,627.70 728.82,626.78 732.66,624.92 ZM 921.00 626.22 C921.00,625.33 917.51,622.64 916.62,622.84 C915.56,623.08 908.50,614.72 903.18,606.93 C898.17,599.61 896.82,596.00 899.10,596.00 C903.28,596.00 910.00,586.42 910.00,580.46 C910.00,576.95 907.20,571.18 904.91,569.95 C903.31,569.10 903.38,569.57 905.49,573.74 C908.91,580.49 908.10,586.84 903.21,591.59 C901.27,593.46 899.25,595.00 898.71,595.00 C898.16,595.00 897.17,595.75 896.50,596.67 C895.47,598.08 896.10,599.53 900.56,605.92 C908.93,617.90 912.32,622.03 915.00,623.53 C916.90,624.59 917.08,624.93 915.75,624.96 C912.36,625.04 914.04,627.00 917.50,627.00 C919.42,627.00 921.00,626.65 921.00,626.22 ZM 274.03 621.42 C274.59,619.94 274.93,608.60 274.82,594.81 C274.67,575.43 274.36,570.50 273.20,569.34 C272.41,568.55 271.48,568.19 271.13,568.53 C270.79,568.88 271.18,569.69 272.00,570.33 C274.27,572.10 273.70,618.00 271.37,621.56 C269.90,623.80 269.90,624.00 271.41,624.00 C272.31,624.00 273.49,622.84 274.03,621.42 ZM 312.80 622.80 C313.61,621.99 314.00,617.48 313.99,609.05 L 313.99 596.50 L 298.99 596.46 C286.72,596.42 284.00,596.67 284.00,597.83 C284.00,598.76 284.43,598.95 285.25,598.37 C285.94,597.89 292.12,597.72 299.00,598.00 L 311.50 598.50 L 311.79 609.41 C311.96,616.00 311.66,620.74 311.04,621.36 C310.47,621.93 310.00,622.76 310.00,623.20 C310.00,624.38 311.43,624.17 312.80,622.80 ZM 401.84 621.59 C402.22,619.62 396.90,606.01 395.75,606.00 C394.49,606.00 394.94,608.24 397.42,614.28 C398.73,617.45 399.55,621.00 399.25,622.16 C398.85,623.67 399.09,624.14 400.10,623.80 C400.87,623.54 401.65,622.55 401.84,621.59 ZM 451.04 618.75 C452.72,615.86 457.03,608.78 460.61,603.00 C464.19,597.22 467.50,591.60 467.96,590.50 C468.42,589.40 470.42,585.83 472.40,582.56 C474.38,579.29 475.99,576.14 475.97,575.56 C475.95,574.98 475.43,575.40 474.81,576.50 C474.18,577.60 473.39,578.72 473.04,579.00 C472.69,579.28 469.79,584.00 466.58,589.50 C463.37,595.00 457.95,604.00 454.53,609.50 C446.51,622.41 445.68,624.00 446.96,624.00 C447.52,624.00 449.36,621.64 451.04,618.75 ZM 527.73 622.25 C528.36,620.63 535.03,609.35 542.39,597.49 C547.20,589.75 547.59,589.08 552.97,579.59 C555.75,574.70 557.82,570.48 557.57,570.24 C556.48,569.14 540.18,568.80 538.40,569.84 C536.91,570.70 538.39,570.95 545.25,570.97 C553.12,571.00 554.00,571.19 554.00,572.87 C554.00,574.34 544.42,591.66 539.00,600.00 C538.46,600.83 537.11,603.08 536.00,605.00 C534.89,606.92 531.98,611.65 529.53,615.50 C527.09,619.35 525.07,622.84 525.04,623.25 C524.96,624.74 527.08,623.96 527.73,622.25 ZM 720.00 622.13 C720.00,621.65 717.75,621.04 715.01,620.77 C702.82,619.60 694.67,609.58 694.56,595.61 C694.46,584.00 696.63,578.58 703.55,573.14 C705.06,571.95 706.01,570.68 705.65,570.31 C704.67,569.34 697.78,575.24 695.65,578.87 C694.63,580.61 693.80,583.60 693.80,585.51 C693.80,587.43 693.37,589.00 692.85,589.00 C692.32,589.00 691.99,591.70 692.11,595.00 C692.23,598.30 692.69,601.00 693.13,601.00 C693.58,601.00 693.70,601.62 693.41,602.38 C692.46,604.84 697.14,612.98 701.60,616.63 C706.04,620.28 712.35,622.81 717.25,622.93 C718.76,622.97 720.00,622.61 720.00,622.13 ZM 563.00 621.16 C563.00,620.70 558.05,620.37 552.00,620.41 C545.95,620.46 541.01,620.28 541.02,620.00 C541.03,619.48 542.43,617.10 549.93,604.78 C552.37,600.77 555.94,594.80 557.87,591.50 C563.23,582.35 566.22,577.39 569.37,572.43 C570.95,569.95 571.97,567.63 571.62,567.29 C570.78,566.44 574.20,560.98 540.83,616.39 C539.36,618.83 538.42,621.09 538.75,621.41 C539.67,622.34 563.00,622.10 563.00,621.16 ZM 641.00 621.00 C641.00,620.41 637.55,620.00 632.66,620.00 L 624.32 620.00 L 623.31 614.25 L 622.29 608.50 L 622.15 614.05 C622.06,617.22 622.51,620.11 623.20,620.80 C624.68,622.28 641.00,622.47 641.00,621.00 ZM 728.86 619.94 C732.89,617.49 732.52,616.33 728.40,618.48 C726.80,619.31 724.94,619.99 724.25,619.99 C723.56,620.00 723.00,620.45 723.00,621.00 C723.00,622.57 725.20,622.17 728.86,619.94 ZM 797.00 620.39 C797.00,620.06 795.82,618.86 794.38,617.73 C789.65,614.01 789.00,610.69 789.00,590.35 C789.00,572.95 789.14,571.48 791.02,569.48 C792.86,567.52 792.88,567.33 791.27,567.30 C787.24,567.23 787.00,568.48 787.00,589.39 C787.00,607.90 787.17,609.85 789.09,613.51 C791.62,618.31 797.00,623.00 797.00,620.39 ZM 821.36 608.36 C822.53,599.86 822.12,571.00 820.83,571.00 C820.19,571.00 819.96,570.70 820.32,570.34 C821.41,569.26 818.91,567.00 816.63,567.00 C814.66,567.01 814.72,567.18 817.33,569.27 L 820.15 571.53 L 819.83 592.27 C819.51,612.34 820.05,617.96 821.36,608.36 ZM 958.56 597.23 C957.40,596.07 957.15,597.68 957.81,602.02 L 958.50 606.50 L 958.81 602.15 C958.98,599.75 958.87,597.54 958.56,597.23 ZM 641.88 603.07 C643.29,602.31 643.65,600.60 643.79,594.07 C643.89,589.33 643.56,586.00 642.98,586.00 C642.44,586.00 641.95,586.79 641.88,587.75 C641.78,589.31 641.72,589.30 641.29,587.65 C640.86,585.97 640.57,586.04 638.05,588.46 C635.59,590.81 634.62,591.07 629.39,590.80 L 623.50 590.50 L 622.93 582.50 L 622.37 574.50 L 622.20 582.50 C622.11,586.90 622.43,591.13 622.91,591.89 C623.98,593.58 637.45,592.95 639.27,591.13 C641.12,589.28 641.51,589.80 641.38,594.00 C641.20,599.55 641.22,599.51 639.07,597.57 C638.02,596.61 636.33,596.01 635.32,596.24 C633.80,596.59 633.94,596.87 636.22,597.98 C637.71,598.70 638.72,599.64 638.47,600.06 C637.96,600.88 638.91,604.00 639.67,604.00 C639.93,604.00 640.92,603.58 641.88,603.07 ZM 380.75 600.31 C379.41,599.96 379.15,599.22 379.63,597.18 C380.77,592.37 384.06,585.92 385.06,586.54 C386.89,587.67 391.17,597.25 390.68,599.13 C390.32,600.47 390.72,601.00 392.09,601.00 C393.14,601.00 394.00,600.81 394.00,600.59 C394.00,600.36 392.20,595.76 390.00,590.38 C387.80,584.99 386.00,580.41 386.00,580.21 C386.00,580.00 385.49,580.00 384.88,580.21 C383.53,580.66 375.93,599.08 376.63,600.21 C376.90,600.64 378.33,600.95 379.81,600.88 C381.50,600.81 381.85,600.60 380.75,600.31 ZM 624.58 596.16 C622.44,595.74 621.57,596.50 622.49,597.98 C622.98,598.78 623.62,598.73 624.74,597.80 C626.16,596.63 626.14,596.47 624.58,596.16 ZM 882.09 593.60 C881.33,592.69 881.03,588.63 881.21,581.85 L 881.50 571.50 L 885.19 571.19 C893.12,570.53 897.87,576.39 896.69,585.37 C896.18,589.22 896.24,589.36 897.65,587.50 C899.53,585.00 898.95,578.10 896.55,574.43 C894.32,571.04 888.86,568.82 883.66,569.20 L 879.50 569.50 L 879.22 582.25 C878.95,594.72 878.99,595.00 881.09,595.00 C882.82,595.00 883.02,594.73 882.09,593.60 ZM 891.97 594.04 C894.60,592.38 892.26,591.80 889.34,593.38 C887.00,594.65 886.85,594.92 888.50,594.94 C889.60,594.96 891.16,594.55 891.97,594.04 ZM 968.80 590.55 C969.67,588.64 969.64,588.20 968.66,588.58 C966.92,589.25 963.85,585.71 959.09,577.55 C955.05,570.61 955.04,570.59 956.99,568.51 C958.95,566.43 958.95,566.42 956.23,565.44 C954.73,564.89 951.92,564.74 950.00,565.09 C946.76,565.69 946.87,565.75 951.50,565.90 C955.42,566.03 956.12,566.28 954.75,567.08 C952.08,568.63 952.55,570.32 958.30,579.78 C967.58,595.06 967.01,594.47 968.80,590.55 ZM 738.41 575.67 C737.56,567.89 736.78,566.41 733.15,565.68 C731.55,565.36 729.06,564.80 727.62,564.44 C726.17,564.08 725.00,564.21 725.00,564.73 C725.00,565.25 727.47,566.24 730.50,566.91 L 736.00 568.14 L 736.00 574.91 C736.00,578.62 736.29,581.95 736.64,582.31 C738.30,583.97 739.02,581.28 738.41,575.67 ZM 314.00 575.06 C314.00,569.87 313.15,567.19 311.89,568.44 C311.09,569.23 312.21,581.00 313.09,581.00 C313.59,581.00 314.00,578.33 314.00,575.06 ZM 735.00 579.93 C735.00,578.25 733.02,575.00 732.00,575.00 C731.48,575.00 731.27,575.67 731.53,576.50 C731.79,577.33 732.21,578.67 732.47,579.50 C733.00,581.21 735.00,581.55 735.00,579.93 ZM 645.02 575.04 C642.67,570.65 639.96,569.51 631.12,569.16 C622.73,568.83 622.43,568.89 622.27,571.06 C622.14,572.75 622.39,573.01 623.25,572.15 C623.90,571.50 627.52,571.00 631.63,571.00 C639.41,571.00 641.27,571.95 643.14,576.87 C643.90,578.87 644.31,579.12 644.99,578.02 C645.47,577.24 645.48,575.90 645.02,575.04 ZM 527.36 573.36 C528.31,566.47 528.20,564.40 526.94,565.66 C525.50,567.10 524.42,578.00 525.72,578.00 C526.28,578.00 527.01,575.91 527.36,573.36 ZM 326.35 567.11 C326.19,566.89 325.36,567.28 324.52,567.98 C323.65,568.71 323.02,570.78 323.05,572.87 L 323.11 576.50 L 324.88 572.00 C325.86,569.53 326.52,567.32 326.35,567.11 ZM 535.45 570.76 C535.98,570.34 535.65,570.00 534.70,570.00 C532.76,570.00 529.00,573.41 529.00,575.17 C529.00,575.82 530.24,575.26 531.75,573.94 C533.26,572.61 534.93,571.19 535.45,570.76 ZM 945.13 574.25 C943.56,571.31 939.17,567.00 937.80,567.04 C937.08,567.06 937.68,568.07 939.12,569.29 C940.56,570.50 942.27,572.51 942.91,573.75 C943.55,574.99 944.52,576.00 945.07,576.00 C945.71,576.00 945.74,575.38 945.13,574.25 ZM 490.95 571.36 C492.14,569.35 492.89,567.17 492.64,566.50 C492.01,564.86 484.60,564.06 478.50,564.98 C474.10,565.64 474.62,565.75 482.85,565.87 L 492.19 566.00 L 489.55 570.50 C488.10,572.97 487.34,575.00 487.86,575.00 C488.38,575.00 489.77,573.36 490.95,571.36 ZM 476.40 569.81 C471.26,568.90 462.14,569.00 459.00,570.00 C457.35,570.53 459.80,570.83 466.19,570.90 C471.76,570.96 476.16,571.45 476.53,572.05 C476.97,572.75 477.69,572.67 478.74,571.80 C480.09,570.68 479.77,570.41 476.40,569.81 ZM 612.61 571.42 C612.27,570.55 612.00,569.65 612.00,569.42 C612.00,569.19 611.59,569.00 611.09,569.00 C610.60,569.00 610.42,569.90 610.71,571.00 C611.00,572.10 611.68,573.00 612.22,573.00 C612.77,573.00 612.94,572.29 612.61,571.42 ZM 901.00 567.50 C900.32,566.67 899.02,566.01 898.13,566.03 C896.76,566.06 896.81,566.30 898.44,567.53 C900.97,569.44 902.60,569.42 901.00,567.50 ZM 286.00 565.00 C286.00,563.83 275.66,563.83 272.00,565.00 C270.28,565.55 272.09,565.83 277.75,565.90 C282.65,565.96 286.00,565.59 286.00,565.00 ZM 456.00 565.00 C456.00,564.45 454.88,564.00 453.50,564.00 C452.12,564.00 451.00,564.45 451.00,565.00 C451.00,565.55 452.12,566.00 453.50,566.00 C454.88,566.00 456.00,565.55 456.00,565.00 ZM 717.25 564.70 C720.88,564.83 723.00,564.50 723.00,563.81 C723.00,562.39 708.86,563.37 706.31,564.96 C704.87,565.86 705.22,565.92 708.00,565.29 C709.92,564.86 714.09,564.59 717.25,564.70 ZM 790.22 502.75 C792.36,501.09 792.32,504.87 792.14,319.82 C792.02,185.86 791.80,163.94 790.56,162.70 C789.32,161.46 766.80,161.29 626.31,161.47 L 463.50 161.67 L 463.17 163.95 C462.98,165.20 463.26,165.96 463.78,165.63 C465.54,164.55 465.93,196.12 465.95,339.50 C465.96,417.60 465.97,485.66 465.98,490.75 L 466.00 500.00 L 578.56 500.00 C653.34,500.00 690.91,500.34 690.50,501.00 C690.09,501.66 701.10,502.04 722.69,502.13 C740.74,502.20 760.45,502.57 766.50,502.96 C784.56,504.11 788.52,504.08 790.22,502.75 ZM 520.58 417.13 C520.29,416.66 522.71,415.61 525.97,414.82 C529.22,414.02 531.66,413.74 531.38,414.19 C531.11,414.63 530.12,415.04 529.19,415.08 C528.15,415.13 527.98,415.35 528.75,415.66 C529.44,415.94 530.00,416.58 530.00,417.08 C530.00,418.25 521.30,418.29 520.58,417.13 ZM 569.57 416.43 C567.37,414.23 567.48,414.17 572.25,415.09 C574.59,415.54 576.84,415.93 577.25,415.96 C577.66,415.98 578.00,416.45 578.00,417.00 C578.00,418.61 571.29,418.15 569.57,416.43 ZM 646.00 417.00 C646.00,416.45 646.34,415.99 646.75,415.98 C647.16,415.96 649.13,415.57 651.12,415.11 C654.37,414.36 654.69,414.46 654.25,416.13 C653.88,417.55 652.83,418.00 649.88,418.00 C647.75,418.00 646.00,417.55 646.00,417.00 ZM 690.00 417.00 C690.00,416.45 690.79,415.99 691.75,415.98 C693.26,415.97 693.29,415.82 692.00,414.92 C690.78,414.06 690.87,413.96 692.50,414.35 C693.60,414.61 696.20,415.11 698.28,415.46 C700.36,415.81 701.79,416.53 701.47,417.05 C700.68,418.32 690.00,418.27 690.00,417.00 ZM 655.00 219.00 C654.10,218.42 653.98,218.02 654.69,218.02 C655.35,218.01 656.16,218.45 656.50,219.00 C657.27,220.24 656.92,220.24 655.00,219.00 ZM 524.00 218.21 C522.62,218.00 521.07,217.42 520.55,216.92 C519.97,216.36 522.52,216.06 527.05,216.15 C531.15,216.23 533.15,216.50 531.50,216.74 C529.85,216.98 528.05,217.50 527.50,217.89 C526.95,218.27 525.38,218.42 524.00,218.21 ZM 649.25 218.20 C643.24,217.59 645.93,216.00 652.75,216.14 C656.46,216.21 658.38,216.48 657.00,216.73 C655.62,216.98 654.05,217.49 653.50,217.86 C652.95,218.23 651.04,218.39 649.25,218.20 ZM 567.00 217.00 C565.18,216.42 566.35,216.17 571.25,216.10 C575.15,216.04 578.00,216.42 578.00,217.00 C578.00,218.17 570.64,218.17 567.00,217.00 ZM 691.00 217.00 C689.94,216.31 691.19,216.03 695.31,216.02 C698.93,216.01 700.89,216.38 700.50,217.00 C699.71,218.28 692.97,218.28 691.00,217.00 Z" fill="rgb(254,254,254)"/>
</g>
</svg>